<svg xmlns="http://www.w3.org/2000/svg" xmlns:xlink="http://www.w3.org/1999/xlink" width="235.28" height="36.696" viewBox="0 0 235.28 36.696"><defs><clipPath id="clip-path"><rect id="Rectangle_7" data-name="Rectangle 7" width="235.28" height="36.695" fill="none"></rect></clipPath></defs><g id="Group_4" data-name="Group 4" transform="translate(0 0)"><path id="Path_1" data-name="Path 1" d="M18.423,0,15.912,5.247,13.986,9.27l4.825,10.916,5.963,13.49L26.13,36.7h9.792l-15-31.449Z" transform="translate(-0.869 0)" fill="#082649"></path><path id="Path_2" data-name="Path 2" d="M8.776,19.566,5.919,25.538,0,37.911H9.27l1.3-3.019,3.019-7.082.978-2.272,2.561-5.975Z" transform="translate(0 -1.215)" fill="#082649"></path><g id="Group_3" data-name="Group 3" transform="translate(0 0)"><g id="Group_2" data-name="Group 2" clip-path="url(#clip-path)"><path id="Path_3" data-name="Path 3" d="M101.386,19.073c0-10.988-7.708-17.705-17.917-17.705h-13.7V9.386H82.427c5.731,0,9.272,3.8,9.272,9.687s-3.54,9.688-9.272,9.688H79.25v-10.7L69.771,9.386V36.78h13.7c10.209,0,17.917-6.717,17.917-17.707" transform="translate(-4.335 -0.085)" fill="#082649"></path><path id="Path_4" data-name="Path 4" d="M145.162,23.058V9.335H170.37V1.369H135.684V36.78H171.1V28.816H145.162Z" transform="translate(-8.43 -0.085)" fill="#082649"></path><path id="Path_5" data-name="Path 5" d="M162.212,16H151.027l-5.237,7.969h11.194Z" transform="translate(-9.058 -0.994)" fill="#082649"></path><path id="Path_6" data-name="Path 6" d="M232.246,28.815l-.823-1.25-1.956-2.979H218.286l6.537-8.537L236.076,1.369H225.814L214.875,16.05V1.369H205.4V36.78h9.476V29.034l3.41-4.447,1.953,2.979.821,1.25,5.224,7.964h11.2Z" transform="translate(-12.761 -0.085)" fill="#082649"></path><path id="Path_7" data-name="Path 7" d="M246.617,7.5a3.752,3.752,0,1,1,3.752-3.752A3.75,3.75,0,0,1,246.617,7.5m-3.5-3.752a3.5,3.5,0,1,0,3.5-3.5,3.5,3.5,0,0,0-3.5,3.5m2.146-1.912a9.248,9.248,0,0,1,1.2-.088c1.364,0,1.646.6,1.646,1.089a1,1,0,0,1-.928,1.008v.024a.955.955,0,0,1,.7.71,5.2,5.2,0,0,0,.395,1.178h-.549a4.582,4.582,0,0,1-.307-.984.859.859,0,0,0-.887-.759h-.783V5.76h-.492Zm.492,1.791h.839c.662,0,1.008-.3,1.008-.734,0-.508-.4-.758-1.121-.758a3.407,3.407,0,0,0-.727.056Z" transform="translate(-15.089 0)" fill="#082649"></path></g></g></g></svg>